<svg xmlns="http://www.w3.org/2000/svg" xmlns:xlink="http://www.w3.org/1999/xlink" width="500" zoomAndPan="magnify" viewBox="0 0 375 374.999991" height="500" preserveAspectRatio="xMidYMid meet" version="1.0"><defs><g/><clipPath id="50d5a7c2ce"><path d="M 262.441406 145.644531 L 315.691406 145.644531 L 315.691406 174.144531 L 262.441406 174.144531 Z M 262.441406 145.644531 " clip-rule="nonzero"/></clipPath><clipPath id="db630878ce"><path d="M 234.535156 144.128906 L 290.035156 144.128906 L 290.035156 174.128906 L 234.535156 174.128906 Z M 234.535156 144.128906 " clip-rule="nonzero"/></clipPath></defs><g fill="#ffffff" fill-opacity="1"><g transform="translate(55.85005, 206.442842)"><g><path d="M 27.457031 -11.121094 L 21.414062 -30.652344 C 18.433594 -29.863281 16.246094 -28.417969 14.320312 -22.070312 L 11.035156 -11.167969 L 7.3125 -28.988281 C 7.226562 -29.511719 6.875 -29.777344 6.347656 -29.777344 L 1.359375 -29.777344 C 0.746094 -29.777344 0.4375 -29.382812 0.570312 -28.8125 L 7.269531 -0.746094 C 7.398438 -0.261719 7.707031 0 8.230469 0 L 12.742188 0 C 13.222656 0 13.574219 -0.261719 13.707031 -0.746094 L 19.289062 -18.960938 L 24.785156 -0.746094 C 24.914062 -0.261719 25.265625 0 25.746094 0 L 30.257812 0 C 30.785156 0 31.089844 -0.261719 31.222656 -0.746094 L 38.316406 -30.652344 C 34.199219 -30.652344 31.003906 -28.023438 29.644531 -21.585938 Z M 27.457031 -11.121094 "/></g></g></g><g fill="#ffffff" fill-opacity="1"><g transform="translate(94.426408, 206.442842)"><g><path d="M 12.4375 -20.011719 C 5.957031 -20.011719 1.183594 -15.9375 1.183594 -9.632812 C 1.183594 -3.242188 5.78125 0.699219 12.4375 0.699219 C 17.253906 0.699219 21.0625 -1.402344 22.59375 -5.78125 C 22.8125 -6.394531 22.464844 -6.789062 21.851562 -6.789062 L 16.988281 -6.789062 C 16.507812 -6.789062 16.246094 -6.523438 16.027344 -6.042969 C 15.5 -4.859375 14.230469 -3.984375 12.304688 -3.984375 C 9.851562 -3.984375 8.320312 -5.734375 8.144531 -8.40625 L 22.246094 -8.40625 C 22.8125 -8.40625 23.121094 -8.714844 23.121094 -9.28125 L 23.121094 -10.070312 C 23.121094 -16.464844 18.304688 -20.011719 12.4375 -20.011719 Z M 8.230469 -11.953125 C 8.605469 -14.054688 9.785156 -15.546875 12.21875 -15.546875 C 14.539062 -15.546875 16.027344 -14.054688 16.15625 -11.953125 Z M 8.230469 -11.953125 "/></g></g></g><g fill="#ffffff" fill-opacity="1"><g transform="translate(118.81578, 206.442842)"><g><path d="M 18.632812 -16.179688 C 16.925781 -18.566406 14.210938 -20.011719 10.902344 -20.011719 C 5.210938 -20.011719 1.269531 -15.765625 1.269531 -9.675781 C 1.269531 -3.546875 5.210938 0.699219 10.902344 0.699219 C 14.210938 0.699219 16.925781 -0.746094 18.632812 -3.152344 C 19.703125 -1.007812 21.542969 0.175781 24.082031 0.4375 L 24.082031 -19.75 C 21.542969 -19.484375 19.703125 -18.304688 18.632812 -16.179688 Z M 12.917969 -4.554688 C 10.246094 -4.554688 8.320312 -6.65625 8.320312 -9.632812 C 8.320312 -12.609375 10.246094 -14.714844 12.917969 -14.714844 C 15.589844 -14.714844 17.515625 -12.609375 17.515625 -9.632812 C 17.515625 -6.65625 15.589844 -4.554688 12.917969 -4.554688 Z M 12.917969 -4.554688 "/></g></g></g><g fill="#ffffff" fill-opacity="1"><g transform="translate(145.044207, 206.442842)"><g><path d="M 10.773438 -19.3125 L 10.773438 -27.628906 C 6.523438 -26.753906 4.203125 -23.820312 4.203125 -19.3125 L 1.402344 -19.3125 C 0.832031 -19.3125 0.527344 -19.003906 0.527344 -18.433594 L 0.527344 -15.105469 C 0.527344 -14.539062 0.832031 -14.230469 1.402344 -14.230469 L 4.203125 -14.230469 L 4.203125 -0.875 C 4.203125 -0.304688 4.511719 0 5.078125 0 L 9.894531 0 C 10.464844 0 10.773438 -0.304688 10.773438 -0.875 L 10.773438 -14.230469 L 13.617188 -14.230469 C 14.1875 -14.230469 14.492188 -14.539062 14.492188 -15.105469 L 14.492188 -18.433594 C 14.492188 -19.003906 14.1875 -19.3125 13.617188 -19.3125 Z M 10.773438 -19.3125 "/></g></g></g><g fill="#ffffff" fill-opacity="1"><g transform="translate(160.063156, 206.442842)"><g><path d="M 14.582031 -19.75 C 12.042969 -19.75 9.984375 -18.609375 8.671875 -16.96875 L 8.671875 -24.523438 C 8.671875 -29.03125 6.347656 -31.964844 2.101562 -32.839844 L 2.101562 -0.875 C 2.101562 -0.304688 2.410156 0 2.976562 0 L 7.792969 0 C 8.363281 0 8.671875 -0.304688 8.671875 -0.875 L 8.671875 -9.632812 C 8.671875 -12.261719 10.289062 -14.449219 12.347656 -14.449219 C 14.40625 -14.449219 15.28125 -13.222656 15.28125 -10.945312 L 15.28125 -0.875 C 15.28125 -0.304688 15.589844 0 16.15625 0 L 20.976562 0 C 21.542969 0 21.851562 -0.304688 21.851562 -0.875 L 21.851562 -10.945312 C 21.851562 -16.203125 19.75 -19.75 14.582031 -19.75 Z M 14.582031 -19.75 "/></g></g></g><g fill="#ffffff" fill-opacity="1"><g transform="translate(183.708141, 206.442842)"><g><path d="M 12.4375 -20.011719 C 5.957031 -20.011719 1.183594 -15.9375 1.183594 -9.632812 C 1.183594 -3.242188 5.78125 0.699219 12.4375 0.699219 C 17.253906 0.699219 21.0625 -1.402344 22.59375 -5.78125 C 22.8125 -6.394531 22.464844 -6.789062 21.851562 -6.789062 L 16.988281 -6.789062 C 16.507812 -6.789062 16.246094 -6.523438 16.027344 -6.042969 C 15.5 -4.859375 14.230469 -3.984375 12.304688 -3.984375 C 9.851562 -3.984375 8.320312 -5.734375 8.144531 -8.40625 L 22.246094 -8.40625 C 22.8125 -8.40625 23.121094 -8.714844 23.121094 -9.28125 L 23.121094 -10.070312 C 23.121094 -16.464844 18.304688 -20.011719 12.4375 -20.011719 Z M 8.230469 -11.953125 C 8.605469 -14.054688 9.785156 -15.546875 12.21875 -15.546875 C 14.539062 -15.546875 16.027344 -14.054688 16.15625 -11.953125 Z M 8.230469 -11.953125 "/></g></g></g><g fill="#ffffff" fill-opacity="1"><g transform="translate(208.097514, 206.442842)"><g><path d="M 14.976562 -19.574219 C 14.539062 -19.660156 14.011719 -19.75 13.53125 -19.75 C 11.210938 -19.75 9.042969 -18.699219 7.664062 -15.894531 C 6.613281 -17.886719 4.730469 -19.203125 2.101562 -19.75 L 2.101562 -0.875 C 2.101562 -0.304688 2.410156 0 2.976562 0 L 7.792969 0 C 8.363281 0 8.671875 -0.304688 8.671875 -0.875 L 8.671875 -9.722656 C 8.933594 -12.390625 10.289062 -13.792969 12.65625 -13.792969 C 13.269531 -13.792969 13.925781 -13.707031 14.667969 -13.53125 C 15.28125 -13.355469 15.675781 -13.617188 15.675781 -14.230469 L 15.675781 -18.566406 C 15.675781 -19.046875 15.457031 -19.441406 14.976562 -19.574219 Z M 14.976562 -19.574219 "/></g></g></g><g fill="#ffffff" fill-opacity="1"><g transform="translate(224.517647, 206.442842)"><g><path d="M 3.4375 -5.957031 C 6.679688 -7.464844 8.933594 -10.574219 8.933594 -15.984375 L 8.933594 -28.902344 C 8.933594 -29.46875 8.625 -29.777344 8.058594 -29.777344 L 3.242188 -29.777344 C 2.671875 -29.777344 2.363281 -29.46875 2.363281 -28.902344 L 2.363281 -0.875 C 2.363281 -0.304688 2.671875 0 3.242188 0 L 18.304688 0 C 18.871094 0 19.179688 -0.304688 19.179688 -0.875 L 19.179688 -5.078125 C 19.179688 -5.648438 18.871094 -5.957031 18.304688 -5.957031 Z M 3.4375 -5.957031 "/></g></g></g><g fill="#ffffff" fill-opacity="1"><g transform="translate(243.91529, 206.442842)"><g><path d="M 12.261719 0.699219 C 19.136719 0.699219 23.25 -3.546875 23.25 -9.632812 C 23.25 -15.675781 19.09375 -20.011719 12.261719 -20.011719 C 5.386719 -20.011719 1.226562 -15.675781 1.226562 -9.632812 C 1.226562 -3.589844 5.34375 0.699219 12.261719 0.699219 Z M 12.261719 -4.421875 C 9.328125 -4.421875 7.75 -6.699219 7.75 -9.589844 C 7.75 -12.523438 9.371094 -14.886719 12.261719 -14.886719 C 15.152344 -14.886719 16.726562 -12.566406 16.726562 -9.589844 C 16.726562 -6.65625 15.152344 -4.421875 12.261719 -4.421875 Z M 12.261719 -4.421875 "/></g></g></g><g fill="#ffffff" fill-opacity="1"><g transform="translate(268.436027, 206.442842)"><g><path d="M 12.261719 0.699219 C 19.136719 0.699219 23.25 -3.546875 23.25 -9.632812 C 23.25 -15.675781 19.09375 -20.011719 12.261719 -20.011719 C 5.386719 -20.011719 1.226562 -15.675781 1.226562 -9.632812 C 1.226562 -3.589844 5.34375 0.699219 12.261719 0.699219 Z M 12.261719 -4.421875 C 9.328125 -4.421875 7.75 -6.699219 7.75 -9.589844 C 7.75 -12.523438 9.371094 -14.886719 12.261719 -14.886719 C 15.152344 -14.886719 16.726562 -12.566406 16.726562 -9.589844 C 16.726562 -6.65625 15.152344 -4.421875 12.261719 -4.421875 Z M 12.261719 -4.421875 "/></g></g></g><g fill="#ffffff" fill-opacity="1"><g transform="translate(292.956763, 206.442842)"><g><path d="M 15.28125 -20.011719 C 11.953125 -20.011719 9.21875 -18.566406 7.53125 -16.136719 C 6.457031 -17.996094 4.621094 -19.222656 2.101562 -19.75 L 2.101562 1.75 C 2.101562 7.445312 4.421875 10.507812 8.671875 10.945312 L 8.671875 -1.839844 C 10.335938 -0.21875 12.609375 0.699219 15.28125 0.699219 C 20.976562 0.699219 24.914062 -3.546875 24.914062 -9.675781 C 24.914062 -15.765625 20.976562 -20.011719 15.28125 -20.011719 Z M 13.269531 -4.554688 C 10.597656 -4.554688 8.671875 -6.65625 8.671875 -9.632812 C 8.671875 -12.609375 10.597656 -14.714844 13.269531 -14.714844 C 15.9375 -14.714844 17.867188 -12.609375 17.867188 -9.632812 C 17.867188 -6.65625 15.9375 -4.554688 13.269531 -4.554688 Z M 13.269531 -4.554688 "/></g></g></g><g clip-path="url(#50d5a7c2ce)"><path fill="#d9d9d9" d="M 306.539062 155.71875 C 306.082031 155.71875 305.636719 155.753906 305.203125 155.816406 C 304.671875 150.109375 299.898438 145.644531 294.082031 145.644531 C 290.46875 145.644531 287.257812 147.371094 285.214844 150.046875 C 284.394531 149.804688 283.527344 149.671875 282.628906 149.671875 C 278.566406 149.671875 275.121094 152.328125 273.921875 156.015625 C 273.183594 155.820312 272.40625 155.714844 271.605469 155.714844 C 266.546875 155.71875 262.445312 159.839844 262.445312 164.929688 C 262.445312 170.015625 266.546875 174.140625 271.605469 174.140625 L 306.539062 174.140625 C 311.601562 174.140625 315.703125 170.011719 315.703125 164.929688 C 315.703125 159.84375 311.597656 155.71875 306.539062 155.71875 Z M 306.539062 155.71875 " fill-opacity="1" fill-rule="nonzero"/></g><g clip-path="url(#db630878ce)"><path fill="#ffffff" d="M 280.496094 154.734375 C 280.019531 154.734375 279.554688 154.773438 279.101562 154.839844 C 278.550781 148.832031 273.574219 144.128906 267.515625 144.128906 C 263.75 144.128906 260.402344 145.949219 258.273438 148.765625 C 257.417969 148.507812 256.515625 148.371094 255.578125 148.371094 C 251.34375 148.371094 247.753906 151.167969 246.503906 155.046875 C 245.734375 154.839844 244.921875 154.730469 244.089844 154.730469 C 238.820312 154.734375 234.542969 159.074219 234.542969 164.429688 C 234.542969 169.785156 238.820312 174.125 244.089844 174.125 L 280.496094 174.125 C 285.769531 174.125 290.042969 169.78125 290.042969 164.429688 C 290.042969 159.078125 285.765625 154.734375 280.496094 154.734375 Z M 280.496094 154.734375 " fill-opacity="1" fill-rule="nonzero"/></g></svg>